<svg xmlns="http://www.w3.org/2000/svg" xmlns:xlink="http://www.w3.org/1999/xlink" width="305.546" height="168.06" viewBox="0 0 305.546 168.06"><defs><style>.a,.cc{fill:none;}.b{fill:#0e0dff;}.c{opacity:0.43;}.c,.ca{isolation:isolate;}.d{clip-path:url(#a);}.e{fill:#09a7f9;}.f{fill:#09a8f9;}.g{fill:#09a9f9;}.h{fill:#09aaf9;}.i{fill:#09abf9;}.j{fill:#09acf9;}.k{fill:#09adf9;}.l{fill:#09aef9;}.m{fill:#09aff9;}.n{fill:#09b0f9;}.o{fill:#09b1f9;}.p{fill:#09b2f9;}.q{fill:#09b3f9;}.r{fill:#09b4f9;}.s{fill:#09b5f9;}.t{fill:#09b6f9;}.u{fill:#09b7f9;}.v{fill:#09b8f9;}.w{fill:#09b9f9;}.x{fill:#09baf9;}.y{fill:#09bbf9;}.z{fill:#09bcf9;}.aa{fill:#09bdf9;}.ab{fill:#09bef9;}.ac{fill:#09bff9;}.ad{fill:#09c0f9;}.ae{fill:#09c1f9;}.af{fill:#09c2f9;}.ag{fill:#09c3f9;}.ah{fill:#09c4f9;}.ai{fill:#09c5f9;}.aj{fill:#09c6f9;}.ak{fill:#09c7f9;}.al{fill:#09c8f9;}.am{fill:#09c9f9;}.an{fill:#09caf9;}.ao{fill:#09cbf9;}.ap{fill:#09cdf9;}.aq{fill:#09cef9;}.ar{fill:#09cff9;}.as{fill:#09d0f9;}.at{fill:#09d1f9;}.au{fill:#09d2f9;}.av{fill:#09d3f9;}.aw{fill:#09d4f9;}.ax{fill:#09d5f9;}.ay{fill:#09d6f9;}.az{fill:#09d7f9;}.ba{fill:#09d8f9;}.bb{fill:#09d9f9;}.bc{fill:#09daf9;}.bd{fill:#09dbf9;}.be{fill:#09dcf9;}.bf{fill:#09ddf9;}.bg{fill:#09def9;}.bh{fill:#09dff9;}.bi{fill:#09e0f9;}.bj{fill:#09e1f9;}.bk{fill:#09e2f9;}.bl{fill:#09e3f9;}.bm{fill:#09e4f9;}.bn{fill:#09e5f9;}.bo{fill:#09e6f9;}.bp{fill:#09e7f9;}.bq{fill:#09e8f9;}.br{fill:#09e9f9;}.bs{fill:#09eaf9;}.bt{fill:#09ebf9;}.bu{fill:#09ecf9;}.bv{fill:#09edf9;}.bw{fill:#09eef9;}.bx{fill:#09eff9;}.by{fill:#09f0f9;}.bz{fill:#09f1f9;}.cb{fill:#fff;}.cc{stroke:#fff;stroke-width:2px;}.cd{fill:#bbb;}</style><clipPath id="a"><path class="a" d="M1573.878,444.179c3.94-2.78,3.48,52.942,39.4,40.08s57.924,26.8,55,29.015-49.482,18.3-52.747,18.521-40.873-15.657-43.613-18.521c-1.217-1.271-3.108-12.562-5.686-29.015C1573.637,470.33,1571.693,445.724,1573.878,444.179Z" transform="translate(-1566.227 -444.078)"/></clipPath></defs><g transform="translate(-225.999 -18.993)"><g transform="translate(403.028 85.763)"><path class="b" d="M1576.046,444.878c4.283-3.02,111.275-5.109,114.917,0s-6.386,75.661-9.568,78.068-56.909,19.876-60.458,20.122-51.479-17.021-54.457-20.122c-1.316-1.382-4.553-17.2-2.68-34.508C1571.863,473.291,1573.672,446.554,1576.046,444.878Z" transform="translate(-1563.232 -441.78)"/></g><g class="c" transform="translate(412.03 92.669)"><g class="d"><path class="e" d="M1566.228,465.2,1615.7,489.65h-49.472Z" transform="translate(-1566.226 -401.719)"/><path class="e" d="M1566.228,464.982l50.824,25.115H1615.7l-49.472-24.446Z" transform="translate(-1566.226 -402.164)"/><path class="f" d="M1566.228,464.759l52.177,25.783h-1.353l-50.824-25.115Z" transform="translate(-1566.226 -402.61)"/><path class="g" d="M1566.228,464.537l53.529,26.451H1618.4l-52.177-25.783Z" transform="translate(-1566.226 -403.056)"/><path class="h" d="M1566.228,464.314l54.881,27.119h-1.352l-53.529-26.451Z" transform="translate(-1566.226 -403.502)"/><path class="i" d="M1566.228,464.092l56.233,27.787h-1.352l-54.881-27.119Z" transform="translate(-1566.226 -403.948)"/><path class="j" d="M1566.228,463.87l57.586,28.456h-1.353l-56.233-27.787Z" transform="translate(-1566.226 -404.394)"/><path class="k" d="M1566.228,463.647l58.938,29.124h-1.352l-57.586-28.456Z" transform="translate(-1566.226 -404.84)"/><path class="l" d="M1566.228,463.425l60.291,29.792h-1.353l-58.938-29.124Z" transform="translate(-1566.226 -405.285)"/><path class="m" d="M1566.228,463.2l61.643,30.46h-1.353l-60.291-29.792Z" transform="translate(-1566.226 -405.731)"/><path class="n" d="M1566.228,462.98l63,31.129h-1.352l-61.643-30.46Z" transform="translate(-1566.226 -406.177)"/><path class="o" d="M1566.228,462.758l64.348,31.8h-1.353l-63-31.129Z" transform="translate(-1566.226 -406.623)"/><path class="p" d="M1566.228,462.536l65.7,32.465h-1.352l-64.348-31.8Z" transform="translate(-1566.226 -407.069)"/><path class="q" d="M1566.228,462.313l67.052,33.133h-1.352l-65.7-32.465Z" transform="translate(-1566.226 -407.515)"/><path class="r" d="M1566.228,462.091l68.4,33.8h-1.353l-67.052-33.133Z" transform="translate(-1566.226 -407.961)"/><path class="s" d="M1566.228,461.869l69.757,34.47h-1.353l-68.4-33.8Z" transform="translate(-1566.226 -408.407)"/><path class="t" d="M1566.228,461.646l71.109,35.138h-1.353l-69.757-34.47Z" transform="translate(-1566.226 -408.852)"/><path class="u" d="M1566.228,461.424l72.461,35.806h-1.352l-71.109-35.138Z" transform="translate(-1566.226 -409.298)"/><path class="v" d="M1566.228,461.2l73.813,36.475h-1.352l-72.461-35.806Z" transform="translate(-1566.226 -409.744)"/><path class="w" d="M1566.228,460.979l75.166,37.143h-1.353l-73.813-36.475Z" transform="translate(-1566.226 -410.19)"/><path class="x" d="M1566.228,460.757l76.518,37.811h-1.352l-75.166-37.143Z" transform="translate(-1566.226 -410.636)"/><path class="y" d="M1566.228,460.534l77.871,38.479h-1.353L1566.228,461.2Z" transform="translate(-1566.226 -411.082)"/><path class="z" d="M1566.228,460.312l79.223,39.147H1644.1l-77.871-38.479Z" transform="translate(-1566.226 -411.528)"/><path class="aa" d="M1566.228,460.09l80.575,39.816h-1.352l-79.223-39.147Z" transform="translate(-1566.226 -411.973)"/><path class="ab" d="M1566.228,459.867l81.928,40.484H1646.8l-80.575-39.816Z" transform="translate(-1566.226 -412.419)"/><path class="ac" d="M1566.228,459.645l83.28,41.152h-1.352l-81.928-40.484Z" transform="translate(-1566.226 -412.865)"/><path class="ad" d="M1566.228,459.422l84.632,41.82h-1.352l-83.28-41.152Z" transform="translate(-1566.226 -413.311)"/><path class="ae" d="M1566.228,459.2l85.984,42.489h-1.353l-84.632-41.82Z" transform="translate(-1566.226 -413.757)"/><path class="af" d="M1566.228,458.978l87.337,43.157h-1.353l-85.984-42.489Z" transform="translate(-1566.226 -414.203)"/><path class="ag" d="M1566.228,458.755l88.689,43.825h-1.352l-87.337-43.157Z" transform="translate(-1566.226 -414.649)"/><path class="ah" d="M1566.228,458.533l90.042,44.493h-1.353L1566.228,459.2Z" transform="translate(-1566.226 -415.095)"/><path class="ai" d="M1566.228,458.311l91.394,45.162h-1.352l-90.042-44.493Z" transform="translate(-1566.226 -415.54)"/><path class="aj" d="M1566.228,458.088l92.746,45.83h-1.353l-91.394-45.162Z" transform="translate(-1566.226 -415.986)"/><path class="ak" d="M1566.228,457.866l94.1,46.5h-1.352l-92.746-45.83Z" transform="translate(-1566.226 -416.432)"/><path class="al" d="M1566.228,457.644l95.451,47.166h-1.353l-94.1-46.5Z" transform="translate(-1566.226 -416.878)"/><path class="am" d="M1566.228,457.421l96.8,47.834h-1.353l-95.451-47.166Z" transform="translate(-1566.226 -417.324)"/><path class="an" d="M1566.228,457.2l98.155,48.5h-1.352l-96.8-47.834Z" transform="translate(-1566.226 -417.77)"/><path class="ao" d="M1566.228,456.977l99.507,49.171h-1.352l-98.155-48.5Z" transform="translate(-1566.226 -418.216)"/><path class="ap" d="M1566.228,456.754l100.86,49.839h-1.353l-99.507-49.171Z" transform="translate(-1566.226 -418.662)"/><path class="aq" d="M1566.228,456.532l102.212,50.507h-1.353L1566.228,457.2Z" transform="translate(-1566.226 -419.108)"/><path class="ar" d="M1566.228,456.309l103.565,51.176h-1.353l-102.212-50.507Z" transform="translate(-1566.226 -419.553)"/><path class="as" d="M1566.228,456.087l104.917,51.844h-1.352l-103.565-51.176Z" transform="translate(-1566.226 -419.999)"/><path class="at" d="M1566.228,455.865l104.97,51.87v.642h-.053l-104.917-51.844Z" transform="translate(-1566.226 -420.445)"/><path class="au" d="M1566.228,455.642l104.97,51.87v.668l-104.97-51.87Z" transform="translate(-1566.226 -420.891)"/><path class="av" d="M1566.228,455.42l104.97,51.87v.668l-104.97-51.87Z" transform="translate(-1566.226 -421.337)"/><path class="aw" d="M1566.228,455.2l104.97,51.87v.668l-104.97-51.87Z" transform="translate(-1566.226 -421.783)"/><path class="ax" d="M1566.228,454.975l104.97,51.87v.668l-104.97-51.87Z" transform="translate(-1566.226 -422.229)"/><path class="ay" d="M1566.228,454.753l104.97,51.87v.668l-104.97-51.87Z" transform="translate(-1566.226 -422.674)"/><path class="az" d="M1566.228,454.531,1671.2,506.4v.668l-104.97-51.87Z" transform="translate(-1566.226 -423.12)"/><path class="ba" d="M1566.228,454.308l104.97,51.87v.668l-104.97-51.87Z" transform="translate(-1566.226 -423.566)"/><path class="bb" d="M1566.228,454.086l104.97,51.87v.668l-104.97-51.87Z" transform="translate(-1566.226 -424.012)"/><path class="bc" d="M1566.228,453.863l104.97,51.87v.668l-104.97-51.87Z" transform="translate(-1566.226 -424.458)"/><path class="bd" d="M1566.228,453.641l104.97,51.87v.668l-104.97-51.87Z" transform="translate(-1566.226 -424.904)"/><path class="be" d="M1566.228,453.419l104.97,51.87v.668l-104.97-51.87Z" transform="translate(-1566.226 -425.35)"/><path class="bf" d="M1566.228,453.2l104.97,51.87v.668l-104.97-51.87Z" transform="translate(-1566.226 -425.796)"/><path class="bg" d="M1566.228,452.974l104.97,51.87v.668l-104.97-51.87Z" transform="translate(-1566.226 -426.241)"/><path class="bh" d="M1566.228,452.752l104.97,51.87v.668l-104.97-51.87Z" transform="translate(-1566.226 -426.687)"/><path class="bi" d="M1566.228,452.529,1671.2,504.4v.668l-104.97-51.87Z" transform="translate(-1566.226 -427.133)"/><path class="bj" d="M1566.228,452.307l104.97,51.87v.668l-104.97-51.87Z" transform="translate(-1566.226 -427.579)"/><path class="bk" d="M1566.228,452.085l104.97,51.87v.668l-104.97-51.87Z" transform="translate(-1566.226 -428.025)"/><path class="bl" d="M1566.228,451.862l104.97,51.87v.668l-104.97-51.87Z" transform="translate(-1566.226 -428.471)"/><path class="bm" d="M1566.228,451.64l104.97,51.87v.668l-104.97-51.87Z" transform="translate(-1566.226 -428.917)"/><path class="bn" d="M1566.228,451.417l104.97,51.87v.668l-104.97-51.87Z" transform="translate(-1566.226 -429.362)"/><path class="bo" d="M1566.228,451.2l104.97,51.87v.668l-104.97-51.87Z" transform="translate(-1566.226 -429.808)"/><path class="bp" d="M1566.228,450.973l104.97,51.87v.668l-104.97-51.87Z" transform="translate(-1566.226 -430.254)"/><path class="bq" d="M1566.228,450.75l104.97,51.87v.668l-104.97-51.87Z" transform="translate(-1566.226 -430.7)"/><path class="br" d="M1566.228,450.528,1671.2,502.4v.668l-104.97-51.87Z" transform="translate(-1566.226 -431.146)"/><path class="bs" d="M1566.228,450.306l104.97,51.87v.668l-104.97-51.87Z" transform="translate(-1566.226 -431.592)"/><path class="bt" d="M1566.228,450.083l104.97,51.87v.668l-104.97-51.87Z" transform="translate(-1566.226 -432.038)"/><path class="bu" d="M1566.228,449.861l104.97,51.87v.668l-104.97-51.87Z" transform="translate(-1566.226 -432.484)"/><path class="bv" d="M1566.228,449.639l104.97,51.87v.668l-104.97-51.87Z" transform="translate(-1566.226 -432.93)"/><path class="bw" d="M1566.228,449.416l104.97,51.87v.668l-104.97-51.87Z" transform="translate(-1566.226 -433.375)"/><path class="bx" d="M1566.228,449.194l104.97,51.87v.668l-104.97-51.87Z" transform="translate(-1566.226 -433.821)"/><path class="by" d="M1566.228,448.971l104.97,51.87v.668l-104.97-51.87Z" transform="translate(-1566.226 -434.267)"/><path class="bz" d="M1566.228,448.749l104.97,51.87v.668l-104.97-51.87Z" transform="translate(-1566.226 -434.713)"/><path class="bz" d="M1671.2,511.773l-104.97-51.87V443.187H1671.2Z" transform="translate(-1566.226 -445.866)"/></g></g><g class="ca" transform="translate(234.79 83.959)"><g class="ca" transform="translate(0 0)"><path class="cb" d="M1520.262,528.324q-7.772,0-10.692-3.267t-2.167-10.818q1.568-15.105,3.335-29.541t3.9-29.538q1.028-6.96,4.829-10.473t11.359-3.507q7.713,0,10.777,3.27t2.371,10.764q-.2,2.033-.574,5.115t-.809,6.158q-.437,3.083-.742,5.115h-7.435q.563-4.12,1.16-8.754t1.037-8.706c.234-2.5-.15-4.285-1.142-5.355s-2.789-1.608-5.379-1.608a8.129,8.129,0,0,0-5.463,1.608q-1.861,1.6-2.377,5.355-2.276,15.854-4.081,30.557t-3.414,30.61q-.4,3.7,1.07,5.328t5.175,1.635q4.057,0,6.028-1.635a8.257,8.257,0,0,0,2.54-5.328q.6-4.391,1.175-9.346t1-9.346h7.492q-.393,4.553-.884,8.811t-1.166,8.811q-1.15,7.55-5.1,10.818T1520.262,528.324Z" transform="translate(-1507.249 -441.18)"/><path class="cb" d="M1524.04,527.092l2.765-22.551-4.484-63.147h7.657l1.37,24.21.042,24.477h2.029l5.926-24.477,7.306-24.21h7.771l-20.08,63.2-2.759,22.5Z" transform="translate(-1477.026 -440.751)"/><path class="cb" d="M1532.262,527.092l10.5-85.7h13.4q7.659,0,10.786,3.213t2.326,10.659q-.549,5.355-1.037,9.349t-1.058,7.735q-1.443,8.574-8.072,10.713l-.244,1.983a7.4,7.4,0,0,1,4.652,3.642,13.418,13.418,0,0,1,.908,7.068q-.464,4.715-.959,8.73t-1.181,8.73q-1.19,7.4-5.049,10.635t-11.576,3.24Zm8.223-6.428h5.968q7.208,0,8.354-7.5,1.329-8.574,2.1-17.138.464-4.769-1.106-6.831t-5.632-2.062h-5.577Zm4.889-39.9h5.857q7.266,0,8.48-8.517,1.393-8.678,2.119-17.3.7-7.122-6.452-7.122h-5.968Z" transform="translate(-1457.093 -440.751)"/><path class="cb" d="M1545.248,527.092l10.5-85.7h25.4l-.787,6.428H1562.4l-4.036,32.94H1575.2l-.781,6.374h-16.838l-4.111,33.529h17.965l-.791,6.428Z" transform="translate(-1431.054 -440.751)"/><path class="cb" d="M1556.548,527.092l10.5-85.7h13.686q7.659,0,10.7,3.213t2.47,10.659q-.6,7.181-1.343,13.232t-1.752,12q-1.641,10.174-8.871,12.64l4.907,33.958h-8l-4.268-32.726h-6.59l-4.012,32.726Zm12.231-39.154h6.2q3.827,0,5.758-1.713a9,9,0,0,0,2.548-5.409q2.1-12.964,3.17-25.871.284-3.7-1.223-5.409t-5.283-1.713h-6.25Z" transform="translate(-1408.395 -440.751)"/></g><g class="ca" transform="translate(0 0)"><path class="cc" d="M1520.262,528.324q-7.772,0-10.692-3.267t-2.167-10.818q1.568-15.105,3.335-29.541t3.9-29.538q1.028-6.96,4.829-10.473t11.359-3.507q7.713,0,10.777,3.27t2.371,10.764q-.2,2.033-.574,5.115t-.809,6.158q-.437,3.083-.742,5.115h-7.435q.563-4.12,1.16-8.754t1.037-8.706c.234-2.5-.15-4.285-1.142-5.355s-2.789-1.608-5.379-1.608a8.129,8.129,0,0,0-5.463,1.608q-1.861,1.6-2.377,5.355-2.276,15.854-4.081,30.557t-3.414,30.61q-.4,3.7,1.07,5.328t5.175,1.635q4.057,0,6.028-1.635a8.257,8.257,0,0,0,2.54-5.328q.6-4.391,1.175-9.346t1-9.346h7.492q-.393,4.553-.884,8.811t-1.166,8.811q-1.15,7.55-5.1,10.818T1520.262,528.324Z" transform="translate(-1507.249 -441.18)"/><path class="cc" d="M1524.04,527.092l2.765-22.551-4.484-63.147h7.657l1.37,24.21.042,24.477h2.029l5.926-24.477,7.306-24.21h7.771l-20.08,63.2-2.759,22.5Z" transform="translate(-1477.026 -440.751)"/><path class="cc" d="M1532.262,527.092l10.5-85.7h13.4q7.659,0,10.786,3.213t2.326,10.659q-.549,5.355-1.037,9.349t-1.058,7.735q-1.443,8.574-8.072,10.713l-.244,1.983a7.4,7.4,0,0,1,4.652,3.642,13.418,13.418,0,0,1,.908,7.068q-.464,4.715-.959,8.73t-1.181,8.73q-1.19,7.4-5.049,10.635t-11.576,3.24Zm8.223-6.428h5.968q7.208,0,8.354-7.5,1.329-8.574,2.1-17.138.464-4.769-1.106-6.831t-5.632-2.062h-5.577Zm4.889-39.9h5.857q7.266,0,8.48-8.517,1.393-8.678,2.119-17.3.7-7.122-6.452-7.122h-5.968Z" transform="translate(-1457.093 -440.751)"/><path class="cc" d="M1545.248,527.092l10.5-85.7h25.4l-.787,6.428H1562.4l-4.036,32.94H1575.2l-.781,6.374h-16.838l-4.111,33.529h17.965l-.791,6.428Z" transform="translate(-1431.054 -440.751)"/><path class="cc" d="M1556.548,527.092l10.5-85.7h13.686q7.659,0,10.7,3.213t2.47,10.659q-.6,7.181-1.343,13.232t-1.752,12q-1.641,10.174-8.871,12.64l4.907,33.958h-8l-4.268-32.726h-6.59l-4.012,32.726Zm12.231-39.154h6.2q3.827,0,5.758-1.713a9,9,0,0,0,2.548-5.409q2.1-12.964,3.17-25.871.284-3.7-1.223-5.409t-5.283-1.713h-6.25Z" transform="translate(-1408.395 -440.751)"/></g></g><g transform="translate(433.409 18.993)"><path class="b" d="M1620.846,419.562h0c-22.139,0-42.18,17.066-44.762,38.123v0s-3.982,17.715-2.35,19.173,12.192,1.373,13.863,0,2.35-19.173,2.35-19.173c1.686-13.77,14.792-24.934,29.271-24.934s24.85,11.164,23.164,24.934l-4.186,34.148h13.863l4.183-34.148C1658.822,436.64,1642.976,419.571,1620.846,419.562Z" transform="translate(-1573.341 -419.562)"/></g><g class="ca" transform="translate(225.999 83.971)"><g class="ca"><path class="cd" d="M1517.335,528.328q-7.766,0-10.689-3.267t-2.167-10.819q1.569-15.105,3.336-29.541t3.9-29.538q1.028-6.96,4.835-10.473t11.354-3.507q7.712,0,10.779,3.267t2.369,10.767q-.2,2.033-.571,5.115t-.812,6.158q-.433,3.083-.739,5.115H1531.5q.563-4.12,1.157-8.754t1.043-8.706q.343-3.746-1.145-5.358t-5.379-1.6a8.142,8.142,0,0,0-5.463,1.6q-1.863,1.609-2.377,5.358-2.272,15.854-4.081,30.556t-3.414,30.611q-.4,3.7,1.066,5.328t5.175,1.635q4.057,0,6.028-1.635a8.244,8.244,0,0,0,2.542-5.328q.6-4.4,1.175-9.346t1-9.346h7.489q-.387,4.553-.883,8.811t-1.164,8.811q-1.154,7.551-5.1,10.819T1517.335,528.328Z" transform="translate(-1504.323 -441.184)"/><path class="cd" d="M1521.115,527.1l2.762-22.551L1519.4,441.4h7.654l1.37,24.209.042,24.477h2.029l5.929-24.477,7.3-24.209h7.771l-20.078,63.2-2.756,22.5Z" transform="translate(-1474.1 -440.755)"/><path class="cd" d="M1529.337,527.1l10.5-85.7h13.4q7.658,0,10.786,3.213t2.326,10.659q-.546,5.355-1.031,9.349t-1.061,7.735q-1.447,8.574-8.075,10.713l-.24,1.98a7.386,7.386,0,0,1,4.649,3.645,13.389,13.389,0,0,1,.908,7.068q-.46,4.715-.953,8.73t-1.187,8.73q-1.19,7.393-5.049,10.632T1542.74,527.1Zm8.219-6.428h5.971q7.2,0,8.352-7.5,1.334-8.574,2.1-17.141.473-4.765-1.106-6.828t-5.631-2.062h-5.578Zm4.889-39.9h5.857q7.266,0,8.48-8.517,1.4-8.677,2.119-17.3.7-7.122-6.449-7.122h-5.969Z" transform="translate(-1454.167 -440.755)"/><path class="cd" d="M1542.323,527.1l10.5-85.7h25.4l-.788,6.428h-17.964l-4.036,32.939h16.837l-.781,6.374h-16.838l-4.108,33.529h17.962l-.787,6.428Z" transform="translate(-1428.128 -440.755)"/><path class="cd" d="M1553.623,527.1l10.5-85.7h13.686q7.658,0,10.7,3.213t2.47,10.659q-.6,7.176-1.34,13.232t-1.752,12q-1.645,10.174-8.871,12.64l4.907,33.958h-8l-4.27-32.726h-6.587l-4.009,32.726Zm12.231-39.154h6.2q3.827,0,5.755-1.716a8.988,8.988,0,0,0,2.551-5.406q2.092-12.964,3.167-25.871.284-3.7-1.223-5.412t-5.28-1.71h-6.251Z" transform="translate(-1405.469 -440.755)"/></g></g><g transform="translate(429.168 102.545)"><g class="ca" transform="translate(0)"><g class="ca"><path class="cb" d="M1572.54,502.356c-.448,0-.649-.183-.6-.556l6.287-53.8a.661.661,0,0,1,.745-.634h7.525l10.445,31.13,3.192-30.5c.051-.421.328-.634.829-.634h8.279c.334,0,.475.214.424.634l-6.3,53.882c-.039.318-.195.475-.475.475h-7.359l-11.023-29.075-2.779,28.444q-.077.631-.83.631Z" transform="translate(-1571.93 -447.365)"/><path class="cb" d="M1591.713,502.356c-.222,0-.318-.132-.288-.394l5.334-45.038h-10.87c-.28,0-.406-.129-.373-.394l1.133-8.85a.327.327,0,0,1,.373-.316H1618.8c.279,0,.4.105.378.316l-1.049,8.85c-.03.264-.156.394-.381.394h-10.951l-5.25,45.038c-.033.261-.159.394-.379.394Z" transform="translate(-1544.697 -447.365)"/></g></g></g></g></svg>